#!OML:ASF G:\JayActor3\Patient Classification 1\Patient 1\Session 5\male.ASF
:FULLY-SPECIFIED
:DEGREES
978
root 21.7881 16.6513 -5.62319 56.1855 -87.8225 -58.9031
lowerback 0.827995 -1.63957 1.89675
upperback 1.407 -2.19504 0.187315
thorax 0.913398 -1.08457 -0.86858
lowerneck -7.04891 0.559416 2.08035
upperneck 10.455 0.307688 1.17449
head 4.75441 0.269597 0.0441087
rclavicle -1.67204e-014 -7.7526e-015
rhumerus -33.5037 -5.47248 -85.9892
rradius 29.2083
rwrist 0.976254
rhand -18.0909 -7.72334
rfingers 7.12502
rthumb 8.18262 -37.5449
lclavicle -1.67204e-014 -7.7526e-015
lhumerus -32.4462 8.2785 83.1412
lradius 26.9104
lwrist 17.587
lhand -18.0022 13.6277
lfingers 7.12502
lthumb 8.26821 43.4459
rfemur -19.826 5.2655 26.6987
rtibia 32.8751
rfoot -17.5368 -14.3343
rtoes 7.35686
lfemur 11.0336 2.27816 -18.4664
ltibia 27.4736
lfoot -5.52041 -7.55825
ltoes -19.9729
979
root 21.893 16.6466 -5.60967 50.0322 -87.7967 -52.6831
lowerback 0.903834 -1.68693 1.75403
upperback 1.39223 -2.25625 0.168692
thorax 0.858627 -1.11694 -0.804978
lowerneck -7.02678 0.540592 2.07636
upperneck 10.3574 0.286124 1.1796
head 4.71373 0.258636 0.0448703
rclavicle 1.32363e-014 -1.88845e-015
rhumerus -33.5398 -5.50104 -86.0426
rradius 29.3596
rwrist 0.85808
rhand -18.0811 -7.69317
rfingers 7.12502
rthumb 8.19211 -37.5144
lclavicle 1.32363e-014 -1.88845e-015
lhumerus -32.3294 8.06895 83.3019
lradius 27.0765
lwrist 17.6993
lhand -18.0386 13.6652
lfingers 7.12502
lthumb 8.23305 43.4848
rfemur -20.3574 5.36234 26.4273
rtibia 32.9714
rfoot -17.1519 -14.5823
rtoes 7.90196
lfemur 11.7055 2.25567 -18.7607
ltibia 25.7784
lfoot -6.42485 -7.12178
ltoes -19.8157
980
root 21.9995 16.643 -5.59577 44.201 -87.7652 -46.79
lowerback 0.983266 -1.7247 1.60635
upperback 1.39005 -2.30515 0.145037
thorax 0.81531 -1.14298 -0.743823
lowerneck -7.0214 0.517897 2.06415
upperneck 10.2638 0.25865 1.19502
head 4.67798 0.2451 0.0503065
rclavicle -1.91486e-014 5.46658e-015
rhumerus -33.5518 -5.5388 -86.0964
rradius 29.4841
rwrist 0.744831
rhand -18.0615 -7.65291
rfingers 7.12502
rthumb 8.21101 -37.4734
lclavicle -1.91486e-014 5.46658e-015
lhumerus -32.1761 7.87142 83.4605
lradius 27.2174
lwrist 17.7884
lhand -18.0722 13.6917
lfingers 7.12502
lthumb 8.20061 43.5126
rfemur -20.8727 5.4689 26.1392
rtibia 33.0346
rfoot -16.7113 -14.8479
rtoes 8.51506
lfemur 12.3178 2.28085 -19.0602
ltibia 24.1288
lfoot -7.19661 -6.68853
ltoes -19.4457
981
root 22.1075 16.6407 -5.58155 38.7446 -87.7293 -41.2751
lowerback 1.06619 -1.75564 1.45646
upperback 1.39689 -2.34538 0.118151
thorax 0.779652 -1.16459 -0.684752
lowerneck -7.02663 0.494134 2.04413
upperneck 10.1749 0.229535 1.21705
head 4.64613 0.230871 0.0593277
rclavicle -3.47267e-014 1.05356e-014
rhumerus -33.5377 -5.57497 -86.1523
rradius 29.5735
rwrist 0.639007
rhand -18.0329 -7.59664
rfingers 7.12502
rthumb 8.23854 -37.416
lclavicle -3.47267e-014 1.05356e-014
lhumerus -32.0026 7.68136 83.6168
lradius 27.346
lwrist 17.8688
lhand -18.1068 13.7181
lfingers 7.12502
lthumb 8.16729 43.5402
rfemur -21.3755 5.57778 25.8392
rtibia 33.0687
rfoot -16.2256 -15.1316
rtoes 9.12771
lfemur 12.8821 2.344 -19.3598
ltibia 22.4958
lfoot -7.81731 -6.28854
ltoes -18.9019
982
root 22.2166 16.6393 -5.56724 33.676 -87.6907 -36.1477
lowerback 1.15087 -1.77876 1.30885
upperback 1.40696 -2.37549 0.085546
thorax 0.746385 -1.18105 -0.632792
lowerneck -7.03894 0.470078 2.02531
upperneck 10.0975 0.198744 1.24416
head 4.62005 0.216193 0.0698038
rclavicle 1.64836e-014 -3.57812e-015
rhumerus -33.5048 -5.61783 -86.2111
rradius 29.6252
rwrist 0.548985
rhand -17.9923 -7.52778
rfingers 7.12502
rthumb 8.27776 -37.3456
lclavicle 1.64836e-014 -3.57812e-015
lhumerus -31.8132 7.50442 83.7612
lradius 27.4524
lwrist 17.9308
lhand -18.1386 13.7368
lfingers 7.12502
lthumb 8.13653 43.5601
rfemur -21.8717 5.69001 25.5308
rtibia 33.0802
rfoot -15.7153 -15.427
rtoes 9.72465
lfemur 13.4158 2.42561 -19.6545
ltibia 20.861
lfoot -8.30736 -5.94065
ltoes -18.2898
983
root 22.3267 16.639 -5.55285 28.9687 -87.6519 -31.3768
lowerback 1.23241 -1.79394 1.1642
upperback 1.41717 -2.39534 0.048361
thorax 0.715014 -1.19227 -0.587293
lowerneck -7.06212 0.445789 2.00215
upperneck 10.0386 0.166369 1.27937
head 4.60299 0.201112 0.0837783
rclavicle 3.07945e-014 -1.39149e-015
rhumerus -33.4585 -5.65361 -86.2769
rradius 29.6473
rwrist 0.466048
rhand -17.9462 -7.48746
rfingers 7.12502
rthumb 8.32228 -37.3035
lclavicle 3.07945e-014 -1.39149e-015
lhumerus -31.6136 7.33691 83.8959
lradius 27.5394
lwrist 17.9823
lhand -18.1628 13.7427
lfingers 7.12502
lthumb 8.11317 43.5669
rfemur -22.3664 5.79926 25.2144
rtibia 33.0715
rfoot -15.1871 -15.7277
rtoes 10.2378
lfemur 13.9259 2.49821 -19.9455
ltibia 19.2194
lfoot -8.65774 -5.64615
ltoes -17.6954
984
root 22.4374 16.6392 -5.53838 24.5902 -87.614 -26.9236
lowerback 1.30376 -1.80322 1.0225
upperback 1.426 -2.40768 0.00897791
thorax 0.687941 -1.19966 -0.546041
lowerneck -7.09047 0.42208 1.98496
upperneck 9.99099 0.134309 1.30846
head 4.59116 0.18618 0.0946648
rclavicle -5.1316e-014 4.67144e-015
rhumerus -33.3988 -5.67283 -86.3496
rradius 29.6463
rwrist 0.394395
rhand -17.9007 -7.4778
rfingers 7.12502
rthumb 8.36612 -37.2921
lclavicle -5.1316e-014 4.67144e-015
lhumerus -31.4194 7.16074 84.0288
lradius 27.631
lwrist 18.0463
lhand -18.1795 13.7428
lfingers 7.12502
lthumb 8.09707 43.5676
rfemur -22.8623 5.89925 24.8907
rtibia 33.044
rfoot -14.6634 -16.0069
rtoes 10.7076
lfemur 14.4116 2.54441 -20.2314
ltibia 17.5736
lfoot -8.88961 -5.40922
ltoes -17.1645
985
root 22.5488 16.6397 -5.52381 20.6551 -87.5771 -22.9006
lowerback 1.36357 -1.80678 0.889636
upperback 1.43047 -2.41262 -0.0305386
thorax 0.662669 -1.20322 -0.510211
lowerneck -7.12421 0.399965 1.97053
upperneck 9.95836 0.103642 1.33586
head 4.58597 0.172051 0.104617
rclavicle 2.029e-014 -2.18663e-015
rhumerus -33.3353 -5.68081 -86.4264
rradius 29.6336
rwrist 0.351855
rhand -17.8471 -7.49998
rfingers 7.12502
rthumb 8.41794 -37.3122
lclavicle 2.029e-014 -2.18663e-015
lhumerus -31.2408 6.97232 84.159
lradius 27.7382
lwrist 18.1277
lhand -18.1875 13.756
lfingers 7.12502
lthumb 8.0894 43.5812
rfemur -23.3622 5.98916 24.5664
rtibia 32.9985
rfoot -14.1482 -16.2513
rtoes 11.1512
lfemur 14.8703 2.56007 -20.502
ltibia 15.9267
lfoot -9.0211 -5.2423
ltoes -16.672
986
root 22.6603 16.6408 -5.50874 17.1119 -87.5428 -19.2592
lowerback 1.41022 -1.80609 0.768031
upperback 1.433 -2.4121 -0.0687136
thorax 0.642459 -1.20392 -0.479762
lowerneck -7.15974 0.379392 1.9681
upperneck 9.93444 0.0747287 1.35084
head 4.5844 0.158665 0.108344
rclavicle -6.4341e-015 9.93923e-016
rhumerus -33.2714 -5.67246 -86.5051
rradius 29.6175
rwrist 0.33342
rhand -17.7884 -7.55759
rfingers 7.12502
rthumb 8.47459 -37.3676
lclavicle -6.4341e-015 9.93923e-016
lhumerus -31.0818 6.77202 84.2895
lradius 27.868
lwrist 18.2276
lhand -18.1864 13.7703
lfingers 7.12502
lthumb 8.09048 43.5955
rfemur -23.8622 6.05058 24.2422
rtibia 32.9355
rfoot -13.6299 -16.4502
rtoes 11.4924
lfemur 15.3034 2.55274 -20.7574
ltibia 14.2787
lfoot -9.06631 -5.14158
ltoes -16.2837
